<mxfile host="app.diagrams.net" agent="Mozilla/5.0 (Windows NT 10.0; Win64; x64) AppleWebKit/537.36 (KHTML, like Gecko) Chrome/129.0.0.0 Safari/537.36" version="24.7.15">
  <diagram name="Page-1" id="ihlrob0GAXi_9Pfiux0L">
    <mxGraphModel dx="1873" dy="374" grid="1" gridSize="10" guides="1" tooltips="1" connect="1" arrows="1" fold="1" page="1" pageScale="1" pageWidth="1169" pageHeight="1654" math="0" shadow="0">
      <root>
        <mxCell id="0" />
        <mxCell id="1" parent="0" />
        <mxCell id="KoKk0AQRSXTZml-fwAjf-1" value="Проект драйвера светодиодной высоковольтной ленты и тиристорный регулятор." style="rounded=0;whiteSpace=wrap;html=1;align=left;" vertex="1" parent="1">
          <mxGeometry x="340" y="300" width="196" height="130" as="geometry" />
        </mxCell>
        <mxCell id="KoKk0AQRSXTZml-fwAjf-4" value="" style="rounded=1;whiteSpace=wrap;html=1;" vertex="1" parent="1">
          <mxGeometry x="1720" y="500" width="282" height="280" as="geometry" />
        </mxCell>
        <mxCell id="KoKk0AQRSXTZml-fwAjf-5" value="&lt;font style=&quot;font-size: 18px;&quot;&gt;Нужно изучить что отправляется по Zigbee,&lt;/font&gt;&lt;div&gt;&lt;font style=&quot;font-size: 18px;&quot;&gt;и это даст понимание как управлять.&lt;/font&gt;&lt;/div&gt;" style="text;html=1;align=center;verticalAlign=middle;resizable=0;points=[];autosize=1;strokeColor=none;fillColor=none;" vertex="1" parent="1">
          <mxGeometry x="-55" y="465" width="390" height="60" as="geometry" />
        </mxCell>
        <mxCell id="KoKk0AQRSXTZml-fwAjf-6" value="Единственное, что мы делаем, это смотрим принято ли что-то и ретранслируем(мы являемся роутером)." style="rounded=1;whiteSpace=wrap;html=1;" vertex="1" parent="1">
          <mxGeometry x="390" y="550" width="270" height="170" as="geometry" />
        </mxCell>
      </root>
    </mxGraphModel>
  </diagram>
</mxfile>
